<?xml version="1.0" encoding="utf-8"?>
<!-- Generator: Adobe Illustrator 25.4.2, SVG Export Plug-In . SVG Version: 6.00 Build 0)  -->
<svg version="1.1" id="Capa_1" xmlns="http://www.w3.org/2000/svg" xmlns:xlink="http://www.w3.org/1999/xlink" x="0px" y="0px"
	 viewBox="0 0 8192 951.7" style="enable-background:new 0 0 8192 951.7;" xml:space="preserve">
<style type="text/css">
	.st0{fill:#FFFFFF;}
	.st1{fill:url(#SVGID_1_);}
</style>
<path class="st0" d="M8192.1-4.1H-0.2v857.7C812,667.1,2420.6,454.2,5283.1,615.3c0,0,1626.7,195.3,2909-277.4V-4.1z"/>
<linearGradient id="SVGID_1_" gradientUnits="userSpaceOnUse" x1="-0.2002" y1="648.1459" x2="8192.0996" y2="648.1459">
	<stop  offset="0" style="stop-color:#D89D3B"/>
	<stop  offset="0.1023" style="stop-color:#DBA141"/>
	<stop  offset="0.2373" style="stop-color:#E4AB51"/>
	<stop  offset="0.3899" style="stop-color:#F2BD6D"/>
	<stop  offset="0.5" style="stop-color:#FFCC85"/>
	<stop  offset="0.5765" style="stop-color:#FCC880"/>
	<stop  offset="0.6708" style="stop-color:#F4BC71"/>
	<stop  offset="0.7744" style="stop-color:#E6A958"/>
	<stop  offset="0.8848" style="stop-color:#D38E35"/>
	<stop  offset="0.9993" style="stop-color:#BA6B08"/>
	<stop  offset="1" style="stop-color:#BA6B08"/>
</linearGradient>
<path class="st1" d="M8192.1,807.5c-35.6-14.6-141.2-56.6-300.5-108.9c-182.5-59.9-474.8-145.9-831.4-215.7
	c-400.8-78.4-799.3-120.8-1184.6-125.9c-228.8-3-455.3,7.3-673.4,30.5c-239.9,25.6-475.5,67.5-700,124.7
	c-1.9,0.4-196,44.3-503.4,102.7c-283.7,53.9-724.7,131.7-1214.5,195.8c-488.7,64-1079.6,120.9-1634.4,120.9
	c-425.7,0-830-33.6-1150.1-123.3v7.7c169.4,47.3,371,81.5,599.3,101.6c167.7,14.8,352.8,22.2,552,22.2c49.6,0,100.1-0.5,151.4-1.4
	c433.2-7.8,932.1-48.3,1482.8-120.4c490-64.1,931.1-141.9,1214.9-195.8c307.5-58.4,501.7-102.3,503.7-102.8
	c444.5-113.1,885.1-154.6,1292.7-154.6c483.6,0,920.7,58.5,1262,125.3c356.2,69.7,648.2,155.6,830.5,215.5
	c163.7,53.7,270.5,96.5,302.9,109.9v-8H8192.1z"/>
</svg>
